<svg width="24" height="24" viewBox="0 0 24 24" fill="none" xmlns="http://www.w3.org/2000/svg">
<path fill-rule="evenodd" clip-rule="evenodd" d="M3.16402 6.6849C3.36979 5.49153 4.05138 4.53425 4.78556 3.80008C5.95862 2.62705 7.89903 2.76648 8.89233 4.09516L10.5138 6.26412C11.4067 7.45846 11.2868 9.12729 10.2323 10.1817L10.1212 10.2929C9.73064 10.6834 9.73064 11.3166 10.1212 11.7071L12.2927 13.8787C12.6833 14.2692 13.3164 14.2692 13.707 13.8787L13.8181 13.7675C14.8725 12.7131 16.5414 12.5932 17.7357 13.486L19.921 15.1197C21.2411 16.1066 21.3796 18.0344 20.2142 19.1999C19.4718 19.9422 18.5041 20.6349 17.2961 20.8435C15.072 21.2275 10.8092 21.2235 6.79274 17.2071C2.77447 13.1888 2.78149 8.90348 3.16402 6.6849ZM6.19976 5.21431C5.62364 5.79042 5.24404 6.39201 5.13494 7.02473C4.82646 8.81387 4.78118 12.3671 8.20695 15.7929C11.6343 19.2203 15.1677 19.1813 16.9558 18.8726C17.6007 18.7613 18.2127 18.3729 18.8 17.7857C19.1039 17.4817 19.0678 16.9789 18.7235 16.7216L16.5382 15.0879C16.1401 14.7903 15.5838 14.8302 15.2323 15.1817L15.1212 15.2929C13.9496 16.4645 12.0501 16.4645 10.8785 15.2929L8.70695 13.1213C7.53538 11.9497 7.53538 10.0502 8.70695 8.87867L8.81812 8.76751C9.16959 8.41603 9.20956 7.85975 8.91194 7.46164L7.29047 5.29268C7.02666 4.93979 6.51131 4.90277 6.19976 5.21431Z" fill="white"/>
</svg>
