<svg width="64" height="75" viewBox="0 0 64 75" fill="none" xmlns="http://www.w3.org/2000/svg">
<rect width="64" height="64" rx="32" fill="#1EAFA8"/>
<path d="M39.2851 16C37.2061 16 35.0146 17.2088 33.4124 18.0927C33.0303 18.3034 32.2657 18.8143 32.0002 18.8142C31.7366 18.8142 30.9749 18.3047 30.5931 18.0938C28.9962 17.2101 26.8092 16 24.7153 16C22.0699 16 19.6413 17.0878 17.8772 19.0631C16.2052 20.9351 15.2842 23.3971 15.2842 25.9964C15.2842 29.6316 16.5843 34.7899 18.762 39.7942C19.7323 42.0235 20.7665 43.9517 21.7531 45.3715C22.9822 47.1402 24.0705 48 25.0803 48C25.5653 48 26.4504 47.8031 26.9267 46.4845C27.3234 45.3875 27.6786 44.134 28.0565 42.8005C28.9149 39.7707 30.2124 35.1918 31.9374 35.1918H32.0631C32.7995 35.1918 33.4883 35.8844 34.1684 37.309C34.8918 38.824 35.4477 40.8609 35.9858 42.8312C36.346 44.151 36.6864 45.3977 37.0718 46.4799C37.5396 47.7928 38.4171 47.9892 38.8989 47.9895C39.9052 47.9895 40.9929 47.1169 42.2244 45.3219C43.2085 43.8872 44.2447 41.9402 45.2205 39.6913C47.4092 34.6483 48.7157 29.5288 48.7157 25.9966C48.7157 23.3974 47.7948 20.9351 46.1229 19.0634C44.3591 17.0878 41.9306 16 39.2851 16ZM43.357 38.8821C42.4448 40.9841 41.4476 42.8627 40.5493 44.1721C39.7497 45.3376 39.5306 45.4613 39.1153 45.8332C39.0609 45.882 39.0087 45.8606 38.9861 45.7977C38.6253 44.7901 38.296 43.5784 37.9455 42.2945C37.3846 40.2389 36.8043 38.1133 36.0022 36.4334C34.9502 34.2306 33.6617 33.1597 32.0631 33.1597H31.9374C30.3921 33.1597 29.1314 34.2221 28.0828 36.4077C27.2841 38.0724 26.6817 40.1984 26.0977 42.2595C25.7327 43.5478 25.3881 44.7642 25.0162 45.7925C24.9998 45.8378 24.9737 45.9368 24.871 45.9064C24.6193 45.8323 24.2352 45.3817 23.4215 44.2111C22.5227 42.9179 21.5297 41.0612 20.6251 38.9831C18.584 34.2925 17.3161 29.316 17.3161 25.996C17.3161 22.0809 20.0836 18.0314 24.7152 18.0314C25.9121 18.0314 27.4988 18.5853 28.9594 19.5133C29.1696 19.647 29.4763 19.8826 29.7728 20.1107C29.8938 20.2039 30.0132 20.2954 30.1247 20.3795C30.4875 20.6511 30.9775 21.0063 31.5543 21.3455C31.8597 21.5261 32.1377 21.6862 32.4513 21.8191C33.7078 22.3526 35.0401 22.623 36.4112 22.623C37.8228 22.623 40.7311 22.0248 40.7311 21.6996C40.7311 21.4779 37.2987 21.8935 34.813 20.9403C34.4189 20.7892 33.6147 20.5262 33.6147 20.423C33.6147 20.3491 33.6876 20.2822 33.7597 20.2388C33.937 20.1328 34.1377 20.0128 34.3963 19.87C35.8026 19.0941 37.7287 18.0314 39.2848 18.0314C43.9162 18.0314 46.6839 22.0809 46.6839 25.996C46.6842 29.2149 45.4092 34.1525 43.357 38.8821Z" fill="white"/>
<path d="M38 63H26L32 75L38 63Z" fill="#1EAFA8"/>
</svg>
